<svg id="visual" viewBox="0 0 960 540" width="960" height="540" xmlns="http://www.w3.org/2000/svg" xmlns:xlink="http://www.w3.org/1999/xlink" version="1.1"><rect x="0" y="0" width="960" height="540" fill="#ffe01b"></rect><path d="M0 429L22.8 421.8C45.7 414.7 91.3 400.3 137 400.2C182.7 400 228.3 414 274 411.7C319.7 409.3 365.3 390.7 411.2 393.2C457 395.7 503 419.3 548.8 423.8C594.7 428.3 640.3 413.7 686 399.8C731.7 386 777.3 373 823 374.5C868.7 376 914.3 392 937.2 400L960 408L960 541L937.2 541C914.3 541 868.7 541 823 541C777.3 541 731.7 541 686 541C640.3 541 594.7 541 548.8 541C503 541 457 541 411.2 541C365.3 541 319.7 541 274 541C228.3 541 182.7 541 137 541C91.3 541 45.7 541 22.8 541L0 541Z" fill="#ffffff" stroke-linecap="round" stroke-linejoin="miter"></path></svg>