<svg id="visual" viewBox="0 0 600 900" width="600" height="900" xmlns="http://www.w3.org/2000/svg" xmlns:xlink="http://www.w3.org/1999/xlink" version="1.1"><rect x="0" y="0" width="600" height="900" fill="#ffe01b"></rect><path d="M0 752L14.3 762.8C28.7 773.7 57.3 795.3 85.8 797.7C114.3 800 142.7 783 171.2 777C199.7 771 228.3 776 257 786.2C285.7 796.3 314.3 811.7 343 813C371.7 814.3 400.3 801.7 428.8 781.3C457.3 761 485.7 733 514.2 725.8C542.7 718.7 571.3 732.3 585.7 739.2L600 746L600 901L585.7 901C571.3 901 542.7 901 514.2 901C485.7 901 457.3 901 428.8 901C400.3 901 371.7 901 343 901C314.3 901 285.7 901 257 901C228.3 901 199.7 901 171.2 901C142.7 901 114.3 901 85.8 901C57.3 901 28.7 901 14.3 901L0 901Z" fill="#FFFFFF" stroke-linecap="round" stroke-linejoin="miter"></path></svg>